<?xml version="1.0" standalone="no"?>
<!DOCTYPE svg PUBLIC "-//W3C//DTD SVG 20010904//EN"
 "http://www.w3.org/TR/2001/REC-SVG-20010904/DTD/svg10.dtd">
<svg version="1.0" xmlns="http://www.w3.org/2000/svg"
 width="700.000000pt" height="700.000000pt" viewBox="0 0 700.000000 700.000000"
 preserveAspectRatio="xMidYMid meet">
<metadata>
Created by potrace 1.11, written by Peter Selinger 2001-2013
</metadata>
<g transform="translate(0.000000,700.000000) scale(0.100000,-0.100000)"
fill="#000000" stroke="none">
<path d="M0 3500 l0 -3500 3500 0 3500 0 0 3500 0 3500 -3500 0 -3500 0 0
-3500z m6328 793 l2 -173 -2830 0 -2830 0 0 168 c0 93 3 172 7 175 3 4 1276 6
2827 5 l2821 -3 3 -172z m2 -798 l0 -175 -2830 0 -2830 0 0 175 0 175 2830 0
2830 0 0 -175z m0 -800 l0 -175 -2830 0 -2830 0 0 175 0 175 2830 0 2830 0 0
-175z"/>
</g>
</svg>
