<?xml version="1.0" standalone="no"?>
<!DOCTYPE svg PUBLIC "-//W3C//DTD SVG 20010904//EN"
 "http://www.w3.org/TR/2001/REC-SVG-20010904/DTD/svg10.dtd">
<svg version="1.0" xmlns="http://www.w3.org/2000/svg"
 width="700.000000pt" height="700.000000pt" viewBox="0 0 700.000000 700.000000"
 preserveAspectRatio="xMidYMid meet">
<metadata>
Created by potrace 1.11, written by Peter Selinger 2001-2013
</metadata>
<g transform="translate(0.000000,700.000000) scale(0.100000,-0.100000)"
fill="#000000" stroke="none">
<path d="M673 2545 c-2 -6 -2 -85 -1 -175 l3 -165 2825 0 2825 0 3 173 c1 94
-1 173 -5 173 -5 1 -1276 2 -2827 3 -1941 1 -2820 -2 -2823 -9z"/>
<path d="M680 1782 c-6 -2 -10 -65 -10 -175 l0 -172 2823 1 c1552 1 2825 2
2830 3 4 0 6 79 5 174 l-3 172 -2817 0 c-1549 0 -2822 -1 -2828 -3z"/>
<path d="M674 1011 c-7 -8 -4 -341 4 -342 27 -5 5636 -3 5643 2 6 3 8 78 7
175 l-3 169 -2823 0 c-1553 0 -2826 -2 -2828 -4z"/>
</g>
</svg>
