<?xml version="1.0" standalone="no"?>
<!DOCTYPE svg PUBLIC "-//W3C//DTD SVG 20010904//EN"
 "http://www.w3.org/TR/2001/REC-SVG-20010904/DTD/svg10.dtd">
<svg version="1.0" xmlns="http://www.w3.org/2000/svg"
 width="512.000000pt" height="512.000000pt" viewBox="0 0 512.000000 512.000000"
 preserveAspectRatio="xMidYMid meet">
<metadata>
Created by potrace 1.11, written by Peter Selinger 2001-2013
</metadata>
<g transform="translate(0.000000,512.000000) scale(0.100000,-0.100000)"
fill="#000000" stroke="none">
<path d="M2379 4966 c-2 -3 -40 -7 -84 -11 -44 -3 -98 -10 -120 -15 -22 -5
-60 -12 -84 -15 -68 -10 -215 -50 -331 -90 -701 -243 -1262 -819 -1494 -1530
-23 -73 -62 -224 -72 -285 -3 -14 -9 -50 -14 -80 -32 -187 -34 -580 -5 -725 3
-11 7 -36 10 -55 28 -191 103 -426 204 -635 287 -596 785 -1033 1420 -1246
251 -83 487 -118 781 -114 214 3 227 4 405 36 670 122 1270 540 1627 1134 134
223 254 538 293 768 3 17 8 39 10 47 2 8 7 40 11 70 3 30 10 82 14 115 8 63 5
462 -4 505 -2 14 -10 61 -16 104 -27 184 -102 435 -183 611 -297 647 -850
1125 -1525 1319 -67 20 -133 38 -145 40 -97 20 -129 25 -182 31 -33 4 -69 9
-80 12 -25 6 -431 14 -436 9z m451 -512 c52 -7 118 -18 145 -24 28 -6 64 -13
80 -16 41 -8 48 -10 65 -17 8 -3 38 -13 65 -22 60 -19 218 -86 225 -95 3 -3
28 -19 55 -35 89 -50 208 -146 274 -219 14 -16 36 -39 48 -52 44 -44 137 -190
180 -281 49 -104 95 -231 88 -244 -3 -4 -1 -10 4 -13 4 -3 11 -25 15 -48 4
-24 7 -44 8 -45 11 -34 24 -120 23 -158 l0 -50 -438 0 c-242 0 -441 3 -443 6
-2 4 -6 36 -9 73 -7 91 -12 120 -41 205 -71 212 -226 321 -494 347 -64 6 -190
6 -220 -1 -14 -3 -40 -8 -59 -11 -19 -3 -46 -11 -60 -16 -14 -6 -32 -12 -39
-14 -21 -4 -113 -66 -146 -98 -63 -62 -139 -185 -151 -246 -2 -8 -4 -16 -4
-17 -1 -2 0 -5 2 -6 1 -2 -3 -10 -9 -18 -16 -20 -25 -61 -50 -209 -9 -52 -20
-103 -25 -112 -5 -10 -6 -18 -2 -18 5 0 8 -13 8 -30 0 -16 -2 -30 -5 -30 -3 0
-6 -42 -7 -93 -1 -50 -2 -94 -3 -97 -5 -23 5 -595 10 -595 1 0 3 -16 5 -35 3
-50 14 -137 20 -163 3 -12 7 -33 9 -47 22 -119 83 -278 132 -341 72 -92 184
-165 291 -190 116 -28 305 -27 418 2 53 13 169 61 173 71 2 4 8 8 14 8 17 0
86 64 120 111 64 88 106 229 118 389 0 3 199 6 443 5 l442 0 -1 -30 c-3 -64
-16 -169 -25 -191 -4 -13 -7 -24 -4 -24 2 0 -1 -15 -6 -32 -6 -18 -12 -44 -15
-58 -2 -14 -7 -32 -11 -40 -3 -8 -7 -20 -9 -27 -7 -33 -87 -201 -124 -260
-103 -164 -273 -330 -418 -408 -20 -11 -39 -23 -42 -26 -6 -7 -161 -80 -175
-83 -5 -1 -14 -4 -20 -8 -12 -7 -165 -56 -197 -62 -13 -3 -34 -7 -48 -10 -156
-34 -235 -41 -440 -41 -209 0 -253 5 -459 49 -51 11 -159 50 -229 82 -40 19
-75 34 -78 34 -3 0 -26 14 -51 30 -24 17 -48 30 -52 30 -4 0 -16 9 -26 20 -10
11 -22 20 -27 20 -5 0 -15 6 -23 12 -7 7 -32 28 -55 47 -71 58 -166 160 -243
261 -48 62 -173 297 -181 340 -1 3 -4 10 -7 15 -3 6 -16 44 -28 85 -13 41 -26
82 -29 90 -6 19 -6 16 -31 135 -11 55 -23 120 -26 145 -3 25 -8 63 -11 85 -3
22 -7 198 -9 390 -3 402 7 513 70 760 3 11 8 33 11 49 2 16 8 34 12 40 4 6 7
14 8 19 1 4 2 8 4 10 1 1 3 10 5 20 11 58 156 358 176 365 5 2 9 9 9 14 0 38
214 276 313 348 27 19 60 44 75 56 24 19 78 51 152 90 14 8 30 14 36 14 6 0
17 7 24 15 7 8 19 15 27 15 8 0 29 6 46 14 61 27 117 46 117 40 0 -4 7 -1 15
6 8 7 15 10 15 7 0 -3 24 1 53 9 57 15 132 28 159 26 10 0 20 3 22 7 9 13 376
10 476 -5z"/>
</g>
</svg>
