<?xml version="1.0" standalone="no"?>
<!DOCTYPE svg PUBLIC "-//W3C//DTD SVG 20010904//EN"
 "http://www.w3.org/TR/2001/REC-SVG-20010904/DTD/svg10.dtd">
<svg version="1.0" xmlns="http://www.w3.org/2000/svg"
 width="512.000000pt" height="512.000000pt" viewBox="0 0 512.000000 512.000000"
 preserveAspectRatio="xMidYMid meet">
<metadata>
Created by potrace 1.11, written by Peter Selinger 2001-2013
</metadata>
<g transform="translate(0.000000,512.000000) scale(0.100000,-0.100000)"
fill="#000000" stroke="none">
<path d="M1942 5080 c-8 -19 -68 -177 -134 -350 -66 -173 -133 -351 -150 -395
-17 -44 -42 -109 -55 -145 -13 -36 -28 -74 -33 -85 -5 -11 -149 -389 -320
-840 -171 -451 -315 -829 -320 -840 -5 -11 -99 -258 -210 -550 -110 -291 -204
-539 -209 -550 -5 -11 -55 -141 -111 -290 -55 -148 -105 -279 -110 -290 -9
-20 -280 -734 -280 -739 0 -1 308 -2 685 -2 452 0 685 4 685 10 0 6 41 136 91
291 50 154 100 309 111 345 11 36 27 83 35 105 8 22 17 49 19 59 7 35 36 121
46 133 7 8 228 11 877 11 l868 0 11 -21 c6 -12 27 -71 46 -132 66 -206 188
-580 224 -690 l37 -110 687 0 686 -1 -20 51 c-11 27 -24 61 -29 75 -5 14 -12
32 -16 40 -3 8 -7 20 -9 25 -1 6 -74 197 -162 425 -88 228 -230 600 -316 825
-87 226 -161 419 -166 430 -4 11 -30 76 -55 145 -26 69 -53 139 -60 155 -8 17
-79 201 -158 410 -80 209 -202 529 -272 710 -69 182 -130 339 -134 350 -5 11
-23 58 -41 105 -18 47 -35 94 -40 105 -4 11 -19 49 -33 85 -14 36 -47 121 -72
190 -26 69 -52 139 -60 155 -7 17 -34 86 -60 155 -26 69 -62 163 -80 210 -18
47 -47 123 -65 170 -18 47 -37 96 -43 110 -6 14 -11 27 -11 30 -1 5 -22 60
-36 95 -5 11 -11 28 -14 38 -3 9 -11 17 -18 18 -7 1 -278 2 -602 2 l-589 2
-15 -35z m672 -1575 c19 -60 82 -258 141 -440 58 -181 122 -379 141 -440 20
-60 39 -119 43 -130 5 -11 16 -45 25 -75 9 -30 49 -157 90 -282 l74 -228 -570
0 -569 0 6 23 c10 34 154 483 180 562 13 39 51 158 85 265 34 107 84 263 110
345 27 83 79 244 116 360 77 240 66 236 128 40z"/>
</g>
</svg>
