<svg xmlns="http://www.w3.org/2000/svg" xmlns:xlink="http://www.w3.org/1999/xlink" version="1.1" x="0px" y="0px" viewBox="0 0 32 40" style="enable-background:new 0 0 32 32;" xml:space="preserve"><path d="M29.953,15.814c-0.007-0.051-0.012-0.1-0.029-0.149c-0.016-0.045-0.043-0.084-0.067-0.125  c-0.02-0.034-0.03-0.073-0.056-0.104c-0.008-0.01-0.02-0.014-0.029-0.024c-0.008-0.009-0.011-0.021-0.02-0.03  c-1.315-1.315-2.554-2.532-3.696-3.653c-2.151-2.113-4.01-3.938-5.337-5.407c-0.005-0.005-0.011-0.007-0.016-0.012  c-0.04-0.042-0.09-0.07-0.139-0.102c-0.033-0.021-0.062-0.05-0.098-0.066c-0.041-0.018-0.087-0.022-0.132-0.032  c-0.051-0.012-0.1-0.029-0.152-0.031c-0.007,0-0.013-0.004-0.02-0.004c-0.042,0-0.077,0.017-0.117,0.024  c-0.051,0.008-0.101,0.012-0.15,0.03c-0.052,0.02-0.096,0.053-0.142,0.084c-0.031,0.02-0.066,0.03-0.095,0.056  c-0.005,0.005-0.007,0.011-0.012,0.016c-0.039,0.038-0.066,0.085-0.096,0.13c-0.024,0.036-0.055,0.068-0.073,0.108  c-0.016,0.035-0.018,0.076-0.028,0.114c-0.015,0.057-0.033,0.112-0.034,0.17c0,0.006-0.004,0.012-0.004,0.018  c0,2.267,0.01,2.998,0.015,3.364c0.002,0.177,0.004,0.266,0.002,0.407C13.836,10.6,10.527,10.68,5.859,11.61  c-3.562,0.709-3.847,1.028-3.817,4.268l0.005,0.811c0,0.322-0.002,0.638-0.005,0.942c-0.019,1.958-0.034,3.505,0.948,4.271  c0.538,0.422,1.252,0.507,2.18,0.265c5.652-1.477,11.574-1.7,13.614-1.731l-0.001,4.735c-0.001,0.1,0.019,0.2,0.059,0.294  c0.013,0.03,0.037,0.052,0.053,0.08c0.032,0.056,0.06,0.114,0.107,0.161c0.05,0.05,0.111,0.08,0.169,0.113  c0.025,0.014,0.045,0.036,0.071,0.047c0.092,0.039,0.19,0.06,0.289,0.06c0.099,0,0.196-0.021,0.289-0.059  c0.078-0.033,0.146-0.083,0.209-0.139c0.01-0.009,0.023-0.012,0.033-0.022c0,0,0.001-0.001,0.001-0.001  c0.59-0.589,1.172-1.177,1.752-1.763c2.621-2.646,5.097-5.146,7.885-7.451c0.011-0.009,0.015-0.022,0.025-0.031  c0.008-0.007,0.019-0.01,0.026-0.018c0.025-0.025,0.035-0.057,0.056-0.084c0.034-0.045,0.069-0.088,0.091-0.138  c0.018-0.04,0.026-0.081,0.036-0.123c0.013-0.051,0.027-0.1,0.03-0.152C29.967,15.9,29.958,15.858,29.953,15.814z M20.75,22.887  c-0.155,0.156-0.312,0.313-0.466,0.469l0.001-3.674c0-0.41-0.329-0.744-0.74-0.75c-0.303,0.001-7.612-0.082-14.752,1.784  c-0.427,0.111-0.739,0.111-0.878,0.005c-0.398-0.312-0.383-1.779-0.371-3.075c0.003-0.311,0.006-0.632,0.005-0.96l-0.005-0.822  c-0.01-1.116-0.017-1.853,0.188-2.08c0.244-0.269,1.205-0.46,2.422-0.703c4.742-0.944,7.893-0.986,14.01-0.986  c0.103,0,0.2-0.021,0.29-0.058c0.027-0.011,0.047-0.034,0.073-0.048c0.058-0.033,0.117-0.064,0.164-0.111  c0.023-0.023,0.036-0.055,0.056-0.081c0.038-0.049,0.079-0.096,0.104-0.155c0.015-0.035,0.015-0.075,0.025-0.112  c0.014-0.055,0.036-0.108,0.037-0.167c0.02-0.821,0.02-0.821,0.015-1.195c-0.003-0.232-0.008-0.617-0.011-1.448  c1.164,1.204,2.547,2.565,4.09,4.08c0.968,0.951,2.019,1.986,3.115,3.077C25.534,18.076,23.198,20.414,20.75,22.887z"/><text x="0" y="47" fill="#000000" font-size="5px" font-weight="bold" font-family="'Helvetica Neue', Helvetica, Arial-Unicode, Arial, Sans-serif">Created by Valerie Lamm</text><text x="0" y="52" fill="#000000" font-size="5px" font-weight="bold" font-family="'Helvetica Neue', Helvetica, Arial-Unicode, Arial, Sans-serif">from the Noun Project</text></svg>